<svg width="37" height="36" viewBox="0 0 37 36" fill="none" xmlns="http://www.w3.org/2000/svg">
<path d="M10.5586 0.542969C5.12397 0.542969 0.716797 4.95014 0.716797 10.3848V26.1317C0.716797 31.5664 5.12397 35.9735 10.5586 35.9735H26.3055C31.7402 35.9735 36.1474 31.5664 36.1474 26.1317V10.3848C36.1474 4.95014 31.7402 0.542969 26.3055 0.542969H10.5586ZM30.2423 4.4797C31.3288 4.4797 32.2106 5.36153 32.2106 6.44807C32.2106 7.5346 31.3288 8.41643 30.2423 8.41643C29.1557 8.41643 28.2739 7.5346 28.2739 6.44807C28.2739 5.36153 29.1557 4.4797 30.2423 4.4797ZM18.4321 8.41643C23.8667 8.41643 28.2739 12.8236 28.2739 18.2583C28.2739 23.6929 23.8667 28.1001 18.4321 28.1001C12.9974 28.1001 8.59026 23.6929 8.59026 18.2583C8.59026 12.8236 12.9974 8.41643 18.4321 8.41643ZM18.4321 12.3532C16.866 12.3532 15.364 12.9753 14.2566 14.0827C13.1491 15.1901 12.527 16.6921 12.527 18.2583C12.527 19.8244 13.1491 21.3264 14.2566 22.4338C15.364 23.5412 16.866 24.1634 18.4321 24.1634C19.9982 24.1634 21.5002 23.5412 22.6076 22.4338C23.715 21.3264 24.3372 19.8244 24.3372 18.2583C24.3372 16.6921 23.715 15.1901 22.6076 14.0827C21.5002 12.9753 19.9982 12.3532 18.4321 12.3532Z" fill="white"/>
</svg>
