<svg width="319" height="81" viewBox="0 0 319 81" fill="none" xmlns="http://www.w3.org/2000/svg">
<path d="M26.9351 49.4226C25.6725 49.4226 24.6086 48.9897 23.7435 48.1239C22.8785 47.2345 22.4459 46.1699 22.4459 44.9296V35.9437H26.9351V42.6831C26.9351 43.3148 27.1457 43.8531 27.5663 44.2979C28.0107 44.7189 28.5485 44.9296 29.1797 44.9296H49.381C49.381 46.1932 48.9368 47.2581 48.0482 48.1239C47.1598 48.9897 46.1077 49.4226 44.8918 49.4226H26.9351ZM22.4459 31.4507V26.9578H49.381C49.381 28.2214 48.9368 29.2862 48.0482 30.152C47.1598 31.0178 46.1077 31.4507 44.8918 31.4507H22.4459ZM53.8702 49.4226V35.9437C53.8702 34.7034 54.3028 33.6505 55.1678 32.7847C56.0565 31.8953 57.1202 31.4507 58.3594 31.4507H76.3161V49.4226H71.827V35.9437H60.604C59.9728 35.9437 59.435 36.1661 58.9906 36.6107C58.57 37.0552 58.3594 37.5818 58.3594 38.1902V44.9296H71.827C71.827 46.1932 71.3828 47.2581 70.4941 48.1239C69.6057 48.9897 68.5537 49.4226 67.3378 49.4226H53.8702ZM80.8053 49.4226V26.9578H85.2945V49.4226H80.8053ZM94.2729 49.4226C93.0103 49.4226 91.9464 48.9897 91.0813 48.1239C90.2162 47.2345 89.7837 46.1699 89.7837 44.9296V35.9437C89.7837 34.7034 90.2162 33.6505 91.0813 32.7847C91.9699 31.8953 93.0336 31.4507 94.2729 31.4507H112.23L105.496 38.1902H112.23L107.74 42.6831H96.5175L103.251 35.9437H96.5175C95.8863 35.9437 95.3485 36.1661 94.9041 36.6107C94.4834 37.0552 94.2729 37.5818 94.2729 38.1902V42.6831C94.2729 43.3148 94.4834 43.8531 94.9041 44.2979C95.3485 44.7189 95.8863 44.9296 96.5175 44.9296H112.23C112.23 46.1932 111.785 47.2581 110.897 48.1239C110.008 48.9897 108.956 49.4226 107.74 49.4226H94.2729ZM116.719 49.4226V44.9296H132.431C133.039 44.9296 133.565 44.7189 134.009 44.2979C134.453 43.8531 134.676 43.3148 134.676 42.6831V35.9437H116.719V26.9578H121.208V31.4507H139.165V44.9296C139.165 46.1932 138.721 47.2581 137.832 48.1239C136.943 48.9897 135.891 49.4226 134.676 49.4226H116.719Z" fill="black"/>
<path d="M161.611 49.4226V31.4507L157.121 26.9578H163.855L179.567 42.6831V26.9578H184.057V49.4226H179.567L166.1 35.9437V49.4226H161.611ZM206.502 53.9155V49.4226H193.035C191.796 49.4226 190.732 48.9897 189.843 48.1239C188.978 47.2581 188.546 46.1932 188.546 44.9296V31.4507H193.035V42.6831C193.035 43.3148 193.245 43.8531 193.666 44.2979C194.111 44.7189 194.648 44.9296 195.28 44.9296H206.502V31.4507H210.992V49.4226C210.992 50.6628 210.547 51.7158 209.659 52.5816C208.77 53.4709 207.718 53.9155 206.502 53.9155ZM231.193 44.9296C231.801 44.9296 232.327 44.7189 232.771 44.2979C233.215 43.8531 233.438 43.3148 233.438 42.6831V35.9437H219.97V42.6831C219.97 43.3148 220.181 43.8531 220.601 44.2979C221.046 44.7189 221.583 44.9296 222.215 44.9296H231.193ZM219.97 49.4226C218.707 49.4226 217.644 48.9897 216.778 48.1239C215.913 47.2345 215.481 46.1699 215.481 44.9296V31.4507H237.927V44.9296C237.927 46.1932 237.482 47.2581 236.593 48.1239C235.705 48.9897 234.654 49.4226 233.438 49.4226H219.97ZM242.416 49.4226V31.4507H260.373C261.612 31.4507 262.664 31.8953 263.529 32.7847C264.417 33.6738 264.862 34.7268 264.862 35.9437V49.4226H260.373V38.1902C260.373 37.5818 260.151 37.0552 259.706 36.6107C259.262 36.1661 258.736 35.9437 258.128 35.9437H246.905V49.4226H242.416ZM287.308 53.9155V49.4226H273.84C272.601 49.4226 271.537 48.9897 270.648 48.1239C269.784 47.2581 269.351 46.1932 269.351 44.9296V31.4507H291.797C291.797 32.7144 291.353 33.7792 290.464 34.645C289.575 35.5108 288.524 35.9437 287.308 35.9437H273.84V42.6831C273.84 43.3148 274.051 43.8531 274.471 44.2979C274.915 44.7189 275.454 44.9296 276.085 44.9296H287.308V40.4366H291.797V49.4226C291.797 50.6628 291.353 51.7158 290.464 52.5816C289.575 53.4709 288.524 53.9155 287.308 53.9155Z" fill="black"/>
</svg>
